# xmcd
#
# Track frame offsets:
#	150
#	21145
#	37827
#	57372
#	78437
#	102110
#	125970
#	147402
#	170052
#	187917
#
# Disc length: 2756 seconds
# Revision: 0
# Processed by: cddbd v1.5.2PL0 Copyright (c) Steve Scherf et al.
# Submitted via: dBpowerAMP V12.0
#
DISCID=850ac20a
DTITLE=Otis Clay - I'll Treat You Right
DYEAR=1992
DGENRE=Soul
TTITLE0=I Can Take You to Heaven Tonight
TTITLE1=Thanks a Lot
TTITLE2=Leave me And my Woman Alone
TTITLE3=Love Bone
TTITLE4=Children Gone Astray
TTITLE5=Don't Burn The Bridge
TTITLE6=Back Away From it (or Leave me Alone)
TTITLE7=Gonna Take my Heart's Advice
TTITLE8=Believe That
TTITLE9=Hope You Love me Like You Say You do
EXTD=
EXTT0=
EXTT1=
EXTT2=
EXTT3=
EXTT4=
EXTT5=
EXTT6=
EXTT7=
EXTT8=
EXTT9=
PLAYORDER=
